# xmcd
#
# Track frame offsets: 
#        150
#        11235
#        24201
#        36957
#        47783
#        61832
#        73301
#        88283
#        99630
#        116268
#        127741
#        141704
#        156430
#        167832
#        180190
#        192621
#        204840
#        215938
#        231118
#        242216
#        255665
#        269155
#        282480
#        295049
#        308887
#
# Disc length: 4273 seconds
#
# Revision: 0
# Processed by: cddbd v1.5.2PL0 Copyright (c) Steve Scherf et al.
# Submitted via: ExactAudioCopy v0.99pb5
#
DISCID=8410af19
DTITLE=Various Artist - A Cowboy's Life Is Good Enough For Me
DYEAR=2004
DGENRE=Country
TTITLE0=Stu Davis -  Land Sky And Water
TTITLE1=Red River Dave Sula's Texas Rangers - Red River Moon
TTITLE2=Rex Allen - Cowpoke
TTITLE3=Tex Morton - The Oregon Trail
TTITLE4=Gene Autry - The Old Trail
TTITLE5=Jimmy Wakely - Love Song Of The Waterfall
TTITLE6=Cole Wilson and The Tumbleweeds - On The Plains Away Out There
TTITLE7=Elton Britt - Rogue River Valley
TTITLE8=Jack Patton - Old Painted Desert
TTITLE9=June Holms - Happy Yodeling Cowgirl
TTITLE10=Mac Maguire and The Harmony Rangers - Sundown Lullaby
TTITLE11=Phil Pavey - Bronco Bustin' Blues
TTITLE12=Zeke Manners and His Band (Vocal Curly Gribbs) - Sioux City Sue
TTITLE13=Bob Pressley - Hawaiian Cowboy
TTITLE14=Tim McNamara - Happy Cowboy
TTITLE15=Tex Ritter - Goodbye My Little Cherokee
TTITLE16=Smoky Dawson and The Rocky Canyon Boys - Texas Lil
TTITLE17=Red Foley - The Lone Cowboy
TTITLE18=Rosalie Allen and The Black River Riders - Square Dance Polka
TTITLE19=Elton Britt - Patent Leather Boots
TTITLE20=Dusty Rankin - Going Back To Wyoming
TTITLE21=Texas Jim Robertson - I'm Gonna Throw My Lasso
TTITLE22=Roy Rogers - A Four Legged Friend
TTITLE23=Cliff Carlisle and Little Tommy - Riding The Trail
TTITLE24=Wilf Carter - West Of Rainbow Trail
EXTD=
EXTT0=
EXTT1=
EXTT2=
EXTT3=
EXTT4=
EXTT5=
EXTT6=
EXTT7=
EXTT8=
EXTT9=
EXTT10=
EXTT11=
EXTT12=
EXTT13=
EXTT14=
EXTT15=
EXTT16=
EXTT17=
EXTT18=
EXTT19=
EXTT20=
EXTT21=
EXTT22=
EXTT23=
EXTT24=
PLAYORDER=
